<?xml version="1.0" encoding="UTF-8" standalone="no"?>
<!DOCTYPE svg PUBLIC "-//W3C//DTD SVG 1.1//EN" "http://www.w3.org/Graphics/SVG/1.1/DTD/svg11.dtd">
<svg xmlns:dc="http://purl.org/dc/elements/1.1/" version="1.1" xmlns="http://www.w3.org/2000/svg" xmlns:xl="http://www.w3.org/1999/xlink" viewBox="37 37 259 259" width="259" height="259">
  <defs/>
  <metadata> Produced by OmniGraffle 7.25.2\n2026-03-02 09:48:51 +0000</metadata>
  <g id="Canvas_1" fill-opacity="1" fill="none" stroke="none" stroke-dasharray="none" stroke-opacity="1">
    <title>Canvas 1</title>
    <g id="Canvas_1_Layer_1">
      <title>Layer 1</title>
      <g id="Graphic_11">
        <path d="M 294.57 166.5 C 294.57 237.2311 237.2311 294.57 166.5 294.57 C 95.76889 294.57 38.43 237.2311 38.43 166.5 C 38.43 132.53372 51.92305 99.95862 75.940835 75.940835 C 99.95862 51.92305 132.53372 38.43 166.5 38.43 C 200.46628 38.43 233.04138 51.92305 257.05917 75.940835 C 281.07695 99.95862 294.57 132.53372 294.57 166.5 Z M 123.12 125.78 C 153.72 94.6 204.58 103.75 222.11 144.1 C 224.54 149.67 228.09 150.89 234.25 149.2 C 237.86333 148.20667 240.49667 147.53 242.15 147.17 C 245.85667 146.37 248.29 145.29333 249.45 143.94 C 251.63 141.39333 252.06 138.42667 250.74 135.04 C 225.97 71.36 143.77 57.14 98.48 108.39 C 98.26055 108.64624 97.87832 108.68968 97.6 108.49 L 86.26 100.36 C 85.93765 100.12963 85.56481 99.9757 85.17 99.91 C 83.55 99.66333 82.20667 100.07333 81.14 101.14 C 80.42667 101.85333 80.15333 103.36333 80.32 105.67 C 81.53333 121.93 82.51 135.04667 83.25 145.02 C 83.27657 145.33863 83.3438 145.65123 83.45 145.95 C 85.73 152.29 90.44 152.4 96.87 150.6 C 99.77667 149.78 111.03667 146.84333 130.65 141.79 C 134.29 140.85 136.5 138.9 134.63 135.31 C 134.45907 134.98793 134.21596 134.71058 133.92 134.5 L 123.21 126.82 C 123.04643 126.70576 122.94217 126.52454 122.92485 126.32432 C 122.90752 126.1241 122.97887 125.9251 123.12 125.78 Z M 209.89 207.24 C 179.29 238.42 128.43 229.26 110.91 188.91 C 108.48 183.34 104.93 182.12 98.77 183.81 C 95.15667 184.80333 92.52333 185.47667 90.87 185.83 C 87.16333 186.63 84.73 187.70667 83.57 189.06 C 81.39 191.60667 80.96 194.57333 82.28 197.96 C 107.04 261.65 189.23 275.88 234.53 224.64 C 234.74945 224.38376 235.13168 224.34032 235.41 224.54 L 246.75 232.67 C 247.07235 232.90037 247.4452 233.0543 247.84 233.12 C 249.46 233.36667 250.80333 232.95667 251.87 231.89 C 252.58333 231.17667 252.85667 229.66667 252.69 227.36 C 251.47667 211.1 250.50333 197.98333 249.77 188.01 C 249.74343 187.69137 249.6762 187.37877 249.57 187.08 C 247.29 180.74 242.58 180.63 236.15 182.43 C 233.24333 183.25 221.98333 186.18333 202.37 191.23 C 198.73 192.17 196.52 194.12 198.39 197.71 C 198.56093 198.03207 198.80404 198.30942 199.1 198.52 L 209.8 206.2 C 209.96357 206.31424 210.06783 206.49546 210.08515 206.69568 C 210.10248 206.8959 210.03113 207.0949 209.89 207.24 Z" fill="#68bc36"/>
        <path d="M 294.57 166.5 C 294.57 237.2311 237.2311 294.57 166.5 294.57 C 95.76889 294.57 38.43 237.2311 38.43 166.5 C 38.43 132.53372 51.92305 99.95862 75.940835 75.940835 C 99.95862 51.92305 132.53372 38.43 166.5 38.43 C 200.46628 38.43 233.04138 51.92305 257.05917 75.940835 C 281.07695 99.95862 294.57 132.53372 294.57 166.5 Z M 123.12 125.78 C 153.72 94.6 204.58 103.75 222.11 144.1 C 224.54 149.67 228.09 150.89 234.25 149.2 C 237.86333 148.20667 240.49667 147.53 242.15 147.17 C 245.85667 146.37 248.29 145.29333 249.45 143.94 C 251.63 141.39333 252.06 138.42667 250.74 135.04 C 225.97 71.36 143.77 57.14 98.48 108.39 C 98.26055 108.64624 97.87832 108.68968 97.6 108.49 L 86.26 100.36 C 85.93765 100.12963 85.56481 99.9757 85.17 99.91 C 83.55 99.66333 82.20667 100.07333 81.14 101.14 C 80.42667 101.85333 80.15333 103.36333 80.32 105.67 C 81.53333 121.93 82.51 135.04667 83.25 145.02 C 83.27657 145.33863 83.3438 145.65123 83.45 145.95 C 85.73 152.29 90.44 152.4 96.87 150.6 C 99.77667 149.78 111.03667 146.84333 130.65 141.79 C 134.29 140.85 136.5 138.9 134.63 135.31 C 134.45907 134.98793 134.21596 134.71058 133.92 134.5 L 123.21 126.82 C 123.04643 126.70576 122.94217 126.52454 122.92485 126.32432 C 122.90752 126.1241 122.97887 125.9251 123.12 125.78 Z M 209.89 207.24 C 179.29 238.42 128.43 229.26 110.91 188.91 C 108.48 183.34 104.93 182.12 98.77 183.81 C 95.15667 184.80333 92.52333 185.47667 90.87 185.83 C 87.16333 186.63 84.73 187.70667 83.57 189.06 C 81.39 191.60667 80.96 194.57333 82.28 197.96 C 107.04 261.65 189.23 275.88 234.53 224.64 C 234.74945 224.38376 235.13168 224.34032 235.41 224.54 L 246.75 232.67 C 247.07235 232.90037 247.4452 233.0543 247.84 233.12 C 249.46 233.36667 250.80333 232.95667 251.87 231.89 C 252.58333 231.17667 252.85667 229.66667 252.69 227.36 C 251.47667 211.1 250.50333 197.98333 249.77 188.01 C 249.74343 187.69137 249.6762 187.37877 249.57 187.08 C 247.29 180.74 242.58 180.63 236.15 182.43 C 233.24333 183.25 221.98333 186.18333 202.37 191.23 C 198.73 192.17 196.52 194.12 198.39 197.71 C 198.56093 198.03207 198.80404 198.30942 199.1 198.52 L 209.8 206.2 C 209.96357 206.31424 210.06783 206.49546 210.08515 206.69568 C 210.10248 206.8959 210.03113 207.0949 209.89 207.24 Z" stroke="#797979" stroke-linecap="butt" stroke-linejoin="round" stroke-width="1"/>
      </g>
    </g>
  </g>
</svg>
